<svg fill = "#FFF" id="Capa_1" enable-background="new 0 0 512 512" height="512" viewBox="0 0 512 512" width="512" xmlns="http://www.w3.org/2000/svg"><g><path d="m512 271.29h-21.642v-223.354l-48.303-47.936h-372.11l-48.303 47.936v223.354h-21.642v147.728h21.642v92.982h86.126l10-32.982h276.463l10 32.982h86.126v-92.982h21.643zm-81.642-240.575c5.454 5.425 24.305 23.989 30 29.657v210.918h-30zm51.642 358.303h-452v-87.728h452zm-181.985-117.728h-88.029v-26.468h88.029zm13.604-130.212h-115.238l9.12-25.147h96.997zm-13.604-55.148h-88.029v-54.633h88.029zm-118.03-55.93v68.294l-26.396 72.784h200.821l-26.396-72.784v-68.294h70.343v241.29h-70.343v-56.468h-148.029v56.468h-70.343v-241.29zm-130.343 30.373c5.695-5.668 24.546-24.232 30-29.657v240.574h-30zm408.716 421.627h-33.874l-10-32.982h-320.968l-10 32.982h-33.874v-62.982h408.716z"/><path d="m58 331.29h30v30h-30z"/><path d="m118 331.29h30v30h-30z"/><path d="m178 331.29h30v30h-30z"/></g></svg>